<svg width="100" height="100" viewBox="0 0 100 100" fill="none" xmlns="http://www.w3.org/2000/svg">
<path d="M90 90.0596C83.05 90.0596 76.1 87.7237 70 83.4493C57.8 91.9483 42.2 91.9483 30 83.4493C23.9 87.7237 16.95 90.0596 10 90.0596H0V100H10C16.85 100 23.7 98.2604 30 95.0298C42.5 101.491 57.5 101.491 70 95.0298C76.3 98.2604 83.1 100 90 100H100V90.0596H90ZM93.9 85.0895H90C84.1 85.0895 78.2 83.1014 72.9 79.3738L70 77.3857L67.1 79.3738C61.95 82.9523 56.05 84.841 50 84.841C43.85 84.841 37.95 82.9523 32.8 79.3738L30 77.3857L27.15 79.3738C21.8 83.1014 15.9 85.0895 10 85.0895H6.1C8.75 77.833 17.9 65.2087 50 65.2087C60 65.2087 65 66.4016 65 66.4016C68.4 59.5924 74.15 44.1849 70 24.5527L75.3 28.0815C76.95 35.1889 80 49.0557 74 68.4394C87.15 72.664 92.1 80.1193 93.9 85.0895ZM100 28.3797C96.05 22.9622 90 19.0358 82.9 18.1412C83.5 18.837 84.05 19.6322 84.6 20.4771C87.4491 24.9997 88.7676 30.3099 88.3628 35.6309C87.958 40.9519 85.851 46.0045 82.35 50.0497C85.3 42.8429 85 34.3439 80.4 27.2366C80 26.839 79.8 26.4414 79.5 25.994C77.5 23.1113 74.8 20.7753 71.9 19.0855C61.75 22.3161 54.4 31.7594 54.4 42.8429C54.4 45.4771 54.8 47.9622 55.5 50.2982C52.5 46.173 50.8 41.2028 50.8 35.7356C50.8 27.4851 54.8 20.2286 61 15.6561C55.8 15.2584 50.45 16.4016 45.7 19.3837C43.5 20.7256 41.6 22.3658 40 24.2545C41.95 19.5825 45.25 15.507 50 12.5248C55.0205 9.31492 61.0556 8.05846 66.95 8.99602C65.4599 6.94182 63.6741 5.11648 61.65 3.57853C59.6 2.03777 57.35 0.84493 55 0C60 0.149105 65.2 1.78926 69.55 5.01988C71.75 6.66004 73.5 8.64811 75 10.7853C75.3 10.7853 75.6 10.7356 75.95 10.7356C81.3301 10.7328 86.5693 12.445 90.898 15.6208C95.2268 18.7965 98.417 23.2685 100 28.3797Z" fill="white"/>
</svg>
