<svg width="100" height="79" viewBox="0 0 100 79" fill="none" xmlns="http://www.w3.org/2000/svg">
<path d="M56.25 7.05357C56.25 5.18285 55.5915 3.38874 54.4194 2.06594C53.2473 0.743142 51.6576 0 50 0C48.3424 0 46.7527 0.743142 45.5806 2.06594C44.4085 3.38874 43.75 5.18285 43.75 7.05357C43.75 8.92429 44.4085 10.7184 45.5806 12.0412C46.7527 13.364 48.3424 14.1071 50 14.1071C51.6576 14.1071 53.2473 13.364 54.4194 12.0412C55.5915 10.7184 56.25 8.92429 56.25 7.05357ZM22.5 31.0357C24.1576 31.0357 25.7473 30.2926 26.9194 28.9698C28.0915 27.647 28.75 25.8529 28.75 23.9821C28.75 22.1114 28.0915 20.3173 26.9194 18.9945C25.7473 17.6717 24.1576 16.9286 22.5 16.9286C20.8424 16.9286 19.2527 17.6717 18.0806 18.9945C16.9085 20.3173 16.25 22.1114 16.25 23.9821C16.25 25.8529 16.9085 27.647 18.0806 28.9698C19.2527 30.2926 20.8424 31.0357 22.5 31.0357ZM5 67.7143C2.23437 67.7143 0 70.2359 0 73.3571C0 76.4783 2.23437 79 5 79H95C97.7656 79 100 76.4783 100 73.3571C100 70.2359 97.7656 67.7143 95 67.7143H5ZM77.5 31.0357C79.1576 31.0357 80.7473 30.2926 81.9194 28.9698C83.0915 27.647 83.75 25.8529 83.75 23.9821C83.75 22.1114 83.0915 20.3173 81.9194 18.9945C80.7473 17.6717 79.1576 16.9286 77.5 16.9286C75.8424 16.9286 74.2527 17.6717 73.0806 18.9945C71.9085 20.3173 71.25 22.1114 71.25 23.9821C71.25 25.8529 71.9085 27.647 73.0806 28.9698C74.2527 30.2926 75.8424 31.0357 77.5 31.0357ZM31.25 49.6395L35.4531 58.4388C36.4375 60.502 38.7031 61.2603 40.5312 60.167C42.3594 59.0737 43.0313 56.4991 42.0625 54.4359L36.3906 42.533C36.6562 42.2333 36.8906 41.8982 37.0625 41.5103L41.25 32.7109V42.3214C41.25 45.4426 43.4844 47.9643 46.25 47.9643H53.75C56.5156 47.9643 58.75 45.4426 58.75 42.3214V32.7109L62.9531 41.5103C63.1406 41.8982 63.3594 42.2333 63.625 42.533L57.9531 54.4359C56.9687 56.4991 57.6563 59.056 59.4844 60.167C61.3125 61.2779 63.5781 60.502 64.5625 58.4388L68.75 49.6395V56.4286C68.75 59.5498 70.9844 62.0714 73.75 62.0714H81.25C84.0156 62.0714 86.25 59.5498 86.25 56.4286V49.6395L90.4531 58.4388C91.4375 60.502 93.7031 61.2603 95.5313 60.167C97.3594 59.0737 98.0313 56.4991 97.0625 54.4359L91.1406 42.0393C88.75 37.0136 84.0937 33.8748 79.0312 33.8748H75.9688C73.4219 33.8748 70.9844 34.6683 68.875 36.0967L63.625 25.1107C61.2344 20.085 56.5781 16.9462 51.5156 16.9462H48.4688C43.4063 16.9462 38.7656 20.085 36.3594 25.1107L31.1094 36.0967C29 34.6683 26.5625 33.8748 24.0156 33.8748H20.9687C15.9062 33.8748 11.2656 37.0136 8.85938 42.0393L2.95312 54.4183C1.96875 56.4815 2.65625 59.0384 4.48438 60.1493C6.3125 61.2603 8.57813 60.4844 9.5625 58.4212L13.75 49.6395V56.4286C13.75 59.5498 15.9844 62.0714 18.75 62.0714H26.25C29.0156 62.0714 31.25 59.5498 31.25 56.4286V49.6395Z" fill="white"/>
</svg>
