<svg width="100" height="79" viewBox="0 0 100 79" fill="none" xmlns="http://www.w3.org/2000/svg">
<path d="M68.1818 33.8571C75.7273 33.8571 81.7727 26.2957 81.7727 16.9286C81.7727 7.56143 75.7273 0 68.1818 0C60.6364 0 54.5455 7.56143 54.5455 16.9286C54.5455 26.2957 60.6364 33.8571 68.1818 33.8571ZM31.8182 33.8571C39.3636 33.8571 45.4091 26.2957 45.4091 16.9286C45.4091 7.56143 39.3636 0 31.8182 0C24.2727 0 18.1818 7.56143 18.1818 16.9286C18.1818 26.2957 24.2727 33.8571 31.8182 33.8571ZM31.8182 45.1429C21.2273 45.1429 0 51.745 0 64.8929V79H63.6364V64.8929C63.6364 51.745 42.4091 45.1429 31.8182 45.1429ZM68.1818 45.1429C66.8636 45.1429 65.3636 45.2557 63.7727 45.425C69.0455 50.165 72.7273 56.5414 72.7273 64.8929V79H100V64.8929C100 51.745 78.7727 45.1429 68.1818 45.1429Z" fill="white"/>
</svg>
